REM MD5 756872c6a1c1c633617618668b332ffd
FILE "Breakout (USA).bin" BINARY
  TRACK 01 MODE2/2352
    INDEX 01 00:00:00
  TRACK 02 AUDIO
    INDEX 00 01:41:17
    INDEX 01 01:43:17
  TRACK 03 AUDIO
    INDEX 00 01:59:66
    INDEX 01 02:01:66
  TRACK 04 AUDIO
    INDEX 00 04:51:50
    INDEX 01 04:53:50
  TRACK 05 AUDIO
    INDEX 00 05:02:53
    INDEX 01 05:04:53
  TRACK 06 AUDIO
    INDEX 00 05:27:25
    INDEX 01 05:29:25
  TRACK 07 AUDIO
    INDEX 00 08:22:59
    INDEX 01 08:24:59
  TRACK 08 AUDIO
    INDEX 00 08:33:02
    INDEX 01 08:35:02
  TRACK 09 AUDIO
    INDEX 00 09:13:42
    INDEX 01 09:15:42
  TRACK 10 AUDIO
    INDEX 00 09:38:27
    INDEX 01 09:40:27
  TRACK 11 AUDIO
    INDEX 00 13:11:06
    INDEX 01 13:13:06
  TRACK 12 AUDIO
    INDEX 00 16:43:29
    INDEX 01 16:45:29
  TRACK 13 AUDIO
    INDEX 00 19:47:63
    INDEX 01 19:49:63
  TRACK 14 AUDIO
    INDEX 00 21:31:35
    INDEX 01 21:33:35
  TRACK 15 AUDIO
    INDEX 00 22:03:53
    INDEX 01 22:05:53
  TRACK 16 AUDIO
    INDEX 00 22:21:23
    INDEX 01 22:23:23
  TRACK 17 AUDIO
    INDEX 00 22:48:71
    INDEX 01 22:50:71
  TRACK 18 AUDIO
    INDEX 00 23:07:51
    INDEX 01 23:09:51
  TRACK 19 AUDIO
    INDEX 00 23:18:46
    INDEX 01 23:20:46
  TRACK 20 AUDIO
    INDEX 00 23:42:31
    INDEX 01 23:44:31
  TRACK 21 AUDIO
    INDEX 00 24:52:09
    INDEX 01 24:54:09
  TRACK 22 AUDIO
    INDEX 00 25:12:03
    INDEX 01 25:14:03
  TRACK 23 AUDIO
    INDEX 00 25:21:41
    INDEX 01 25:23:41
  TRACK 24 AUDIO
    INDEX 00 25:36:07
    INDEX 01 25:38:07
  TRACK 25 AUDIO
    INDEX 00 25:50:36
    INDEX 01 25:52:36
  TRACK 26 AUDIO
    INDEX 00 25:59:65
    INDEX 01 26:01:65
  TRACK 27 AUDIO
    INDEX 00 26:08:24
    INDEX 01 26:10:24
  TRACK 28 AUDIO
    INDEX 00 26:19:60
    INDEX 01 26:21:60
  TRACK 29 AUDIO
    INDEX 00 27:55:24
    INDEX 01 27:57:24
  TRACK 30 AUDIO
    INDEX 00 30:20:69
    INDEX 01 30:22:69
  TRACK 31 AUDIO
    INDEX 00 33:04:72
    INDEX 01 33:06:72
  TRACK 32 AUDIO
    INDEX 00 34:55:37
    INDEX 01 34:57:37
  TRACK 33 AUDIO
    INDEX 00 36:53:47
    INDEX 01 36:55:47
  TRACK 34 AUDIO
    INDEX 00 38:06:38
    INDEX 01 38:08:38
  TRACK 35 AUDIO
    INDEX 00 41:38:15
    INDEX 01 41:40:15
  TRACK 36 AUDIO
    INDEX 00 44:32:65
    INDEX 01 44:34:65
  TRACK 37 AUDIO
    INDEX 00 45:14:73
    INDEX 01 45:16:73
  TRACK 38 AUDIO
    INDEX 00 45:25:11
    INDEX 01 45:27:11
  TRACK 39 AUDIO
    INDEX 00 46:07:09
    INDEX 01 46:09:09
  TRACK 40 AUDIO
    INDEX 00 46:17:22
    INDEX 01 46:19:22
  TRACK 41 AUDIO
    INDEX 00 46:44:20
    INDEX 01 46:46:20
  TRACK 42 AUDIO
    INDEX 00 46:54:18
    INDEX 01 46:56:18
  TRACK 43 AUDIO
    INDEX 00 49:51:38
    INDEX 01 49:53:38
  TRACK 44 AUDIO
    INDEX 00 50:03:44
    INDEX 01 50:05:44
  TRACK 45 AUDIO
    INDEX 00 53:54:28
    INDEX 01 53:56:28
  TRACK 46 AUDIO
    INDEX 00 56:42:62
    INDEX 01 56:44:62
  TRACK 47 AUDIO
    INDEX 00 59:20:17
    INDEX 01 59:22:17
  TRACK 48 AUDIO
    INDEX 00 62:13:06
    INDEX 01 62:15:06
  TRACK 49 AUDIO
    INDEX 00 65:26:63
    INDEX 01 65:28:63
REM LEADOUT 68:30:36
